<?xml version="1.0" encoding="UTF-8" standalone="no"?>
<!DOCTYPE svg PUBLIC "-//W3C//DTD SVG 1.1//EN" "http://www.w3.org/Graphics/SVG/1.1/DTD/svg11.dtd">
<svg xmlns="http://www.w3.org/2000/svg" version="1.1" viewBox="0.00 0.00 715.00 349.00">
<g stroke-width="5.00" fill="none" stroke-linecap="butt">
<path stroke="#ebeae8" vector-effect="non-scaling-stroke" d="
  M 513.10 321.09
  Q 507.51 319.45 501.71 320.01
  Q 495.60 320.59 494.75 320.58
  Q 491.58 320.52 487.75 320.11
  C 480.61 319.36 472.97 321.14 466.01 320.43
  Q 458.90 319.70 453.53 320.26
  C 448.75 320.76 444.43 320.55 439.20 320.09
  Q 434.34 319.67 429.47 320.27
  C 421.77 321.22 414.29 319.44 406.62 320.11
  C 401.23 320.58 397.34 320.56 392.49 320.25
  C 387.89 319.95 384.75 320.03 379.19 320.39
  C 372.22 320.85 364.89 319.39 358.26 320.08
  Q 352.44 320.69 347.96 320.39
  C 342.31 320.02 338.20 319.51 333.49 320.44
  C 331.34 320.87 328.55 320.49 326.34 320.47
  Q 324.71 320.45 320.70 320.16
  C 313.94 319.66 307.01 320.96 299.57 320.35
  C 295.05 319.98 288.97 319.44 285.58 320.39
  C 282.99 321.11 278.52 320.45 275.69 320.50
  C 274.73 320.52 273.79 320.00 273.00 320.00
  Q 268.13 320.00 263.25 320.00
  C 262.38 320.00 261.38 320.64 260.23 320.61
  Q 257.24 320.54 254.25 320.53
  Q 253.02 320.53 248.31 319.98
  Q 243.92 319.47 239.90 321.06"
/>
<path stroke="#e98f78" vector-effect="non-scaling-stroke" d="
  M 365.75 75.77
  C 361.18 76.00 357.14 75.86 352.76 76.97
  C 345.34 78.85 338.57 81.17 331.99 85.18
  C 317.62 93.94 305.64 107.77 300.61 124.04
  C 296.84 136.25 295.07 147.90 297.76 160.57
  Q 300.14 171.76 303.72 179.00
  Q 314.88 201.57 338.23 212.84
  C 342.30 214.80 347.01 216.12 351.53 217.67
  C 358.11 219.93 367.23 219.27 374.46 219.11
  Q 380.56 218.98 385.43 217.77
  C 420.03 209.16 443.88 176.99 440.56 141.13
  Q 439.79 132.72 438.51 128.50
  Q 429.89 99.99 404.73 84.68
  C 402.42 83.27 399.63 82.32 397.07 81.02
  C 392.83 78.87 388.59 78.25 384.29 76.71
  A 11.53 11.31 55.0 0 0 380.65 76.03
  C 375.76 75.93 370.73 75.52 365.75 75.77"
/>
<path stroke="#6d6c6a" vector-effect="non-scaling-stroke" d="
  M 287.95 255.45
  L 287.95 231.99
  A 1.01 1.01 0.0 0 0 286.74 231.00
  L 280.63 232.20
  Q 279.49 232.42 279.49 233.58
  L 279.51 300.25
  Q 279.51 300.73 279.98 300.88
  Q 287.54 303.26 295.51 303.52
  Q 304.29 303.80 309.73 300.77
  C 320.68 294.68 323.46 280.82 320.21 269.49
  C 317.79 261.08 312.49 254.91 303.63 253.96
  C 299.18 253.49 292.71 253.63 288.76 255.92
  A 0.54 0.54 0.0 0 1 287.95 255.45"
/>
<path stroke="#6d6c6a" vector-effect="non-scaling-stroke" d="
  M 439.56 261.91
  L 457.02 261.97
  Q 457.50 261.97 457.50 261.48
  L 457.51 254.51
  Q 457.51 254.00 457.00 254.00
  L 439.50 254.00
  Q 438.99 254.00 438.99 253.50
  L 438.93 240.49
  A 0.59 0.59 0.0 0 0 438.24 239.91
  L 431.56 241.14
  A 0.90 0.90 0.0 0 0 430.83 242.02
  Q 430.74 264.73 430.88 287.75
  Q 430.90 291.35 431.91 294.78
  C 432.53 296.84 435.16 300.20 437.09 301.11
  Q 447.52 306.03 458.31 300.80
  Q 458.58 300.67 458.55 300.36
  L 457.76 293.48
  A 0.28 0.28 0.0 0 0 457.34 293.27
  C 450.53 297.22 439.63 297.98 439.19 287.04
  Q 438.70 274.75 439.00 262.45
  Q 439.01 261.90 439.56 261.91"
/>
<path stroke="#6d6c6a" vector-effect="non-scaling-stroke" d="
  M 389.93 262.06
  Q 395.27 261.46 400.63 261.74
  C 404.55 261.94 406.69 261.82 408.41 265.30
  Q 410.73 269.99 410.96 274.50
  Q 411.27 280.52 410.97 302.02
  A 0.27 0.26 1.0 0 0 411.24 302.29
  L 418.95 302.24
  Q 419.13 302.24 419.12 302.06
  Q 419.00 286.68 419.03 271.00
  Q 419.05 261.51 411.38 256.06
  Q 408.85 254.27 405.74 254.09
  C 398.04 253.66 389.06 253.38 381.62 255.70
  Q 381.02 255.89 381.02 256.51
  L 380.99 302.00
  A 0.26 0.26 0.0 0 0 381.25 302.26
  L 389.16 302.23
  Q 389.42 302.23 389.42 301.97
  L 389.35 262.72
  Q 389.34 262.13 389.93 262.06"
/>
<path stroke="#6d6c6a" vector-effect="non-scaling-stroke" d="
  M 258.51 294.22
  A 1.04 1.03 85.0 0 1 257.66 295.24
  C 248.20 296.89 237.55 296.55 237.79 283.76
  Q 237.90 277.73 237.46 255.79
  Q 237.44 255.01 237.48 254.51
  Q 237.53 254.00 237.02 254.00
  L 229.52 254.00
  Q 229.05 254.00 229.04 254.47
  Q 228.73 269.28 229.14 284.46
  C 229.77 308.05 251.21 304.25 266.84 300.93
  Q 267.38 300.82 267.38 300.26
  L 267.37 254.46
  A 0.45 0.44 -90.0 0 0 266.93 254.01
  L 259.00 253.99
  Q 258.50 253.99 258.50 254.50
  L 258.51 294.22"
/>
<path stroke="#6d6c6a" vector-effect="non-scaling-stroke" d="
  M 359.96 294.91
  C 348.24 297.61 339.17 295.73 338.74 281.75
  Q 338.33 268.29 338.54 254.61
  Q 338.55 254.00 337.95 254.00
  L 330.72 254.00
  Q 330.02 254.00 330.02 254.69
  Q 329.99 268.20 329.92 282.01
  C 329.88 289.15 332.30 296.91 338.57 300.72
  C 346.99 305.83 359.19 303.00 368.11 300.97
  A 1.27 1.26 83.8 0 0 369.10 299.73
  L 368.97 254.73
  A 0.74 0.73 -0.0 0 0 368.23 254.00
  L 361.22 254.01
  Q 360.45 254.01 360.46 254.78
  L 360.53 294.20
  Q 360.54 294.78 359.96 294.91"
/>
<path stroke="#6d6c6a" vector-effect="non-scaling-stroke" d="
  M 494.43 294.95
  C 481.85 298.49 473.23 294.44 473.04 280.50
  Q 472.87 267.49 473.05 255.29
  Q 473.07 253.99 471.76 254.00
  L 466.48 254.03
  Q 465.02 254.04 465.02 255.50
  C 464.99 266.30 464.16 278.73 465.79 289.27
  C 468.20 304.84 484.75 304.76 496.46 302.23
  Q 499.82 301.51 503.29 300.93
  Q 503.90 300.83 503.90 300.21
  L 503.98 255.25
  A 1.24 1.24 0.0 0 0 502.75 254.01
  L 496.03 253.99
  Q 494.80 253.99 494.80 255.22
  L 494.80 294.47
  A 0.50 0.50 0.0 0 1 494.43 294.95"
/>
<path stroke="#fea48f" vector-effect="non-scaling-stroke" d="
  M 403.07 104.86
  A 9.68 9.68 0.0 0 0 393.39 95.18
  A 9.68 9.68 0.0 0 0 383.71 104.86
  A 9.68 9.68 0.0 0 0 393.39 114.54
  A 9.68 9.68 0.0 0 0 403.07 104.86"
/>
<path stroke="#fea48f" vector-effect="non-scaling-stroke" d="
  M 384.65 124.30
  C 390.60 128.71 396.30 136.04 396.18 143.93
  A 1.07 1.07 0.0 0 0 397.25 145.01
  L 410.00 144.98
  A 0.77 0.76 85.8 0 0 410.75 144.10
  C 409.46 135.52 406.74 127.09 400.60 120.41
  A 2.11 2.10 -75.2 0 1 400.15 119.63
  Q 399.65 118.02 397.51 118.01
  C 394.02 118.01 390.14 118.56 387.11 116.93
  Q 381.88 114.11 380.33 107.93
  A 0.77 0.75 89.8 0 0 379.78 107.37
  Q 371.80 105.22 367.50 105.73
  C 361.91 106.39 355.55 106.81 350.63 109.83
  Q 350.24 110.07 350.47 110.47
  L 356.64 121.32
  A 0.74 0.74 0.0 0 0 357.51 121.65
  C 361.99 120.12 367.33 118.27 372.01 119.27
  C 376.11 120.14 381.19 121.73 384.65 124.30"
/>
<path stroke="#fea48f" vector-effect="non-scaling-stroke" d="
  M 341.55 141.40
  C 342.97 134.31 346.68 128.99 352.46 124.86
  A 0.64 0.63 56.6 0 0 352.63 124.02
  L 346.05 113.34
  Q 345.65 112.68 344.98 113.06
  C 336.82 117.70 330.50 128.05 328.32 136.39
  Q 328.19 136.90 328.53 137.31
  C 334.92 144.94 334.72 149.85 328.69 157.64
  Q 328.39 158.03 328.49 158.50
  C 330.64 168.17 336.53 175.29 344.40 181.59
  A 1.13 1.12 -54.4 0 0 346.06 181.31
  L 352.49 170.98
  Q 352.76 170.55 352.37 170.23
  Q 338.05 158.82 341.55 141.40"
/>
<path stroke="#fea48f" vector-effect="non-scaling-stroke" d="
  M 329.55 147.44
  A 9.70 9.70 0.0 0 0 319.85 137.74
  A 9.70 9.70 0.0 0 0 310.15 147.44
  A 9.70 9.70 0.0 0 0 319.85 157.14
  A 9.70 9.70 0.0 0 0 329.55 147.44"
/>
<path stroke="#fea48f" vector-effect="non-scaling-stroke" d="
  M 396.20 150.14
  C 396.24 157.21 393.10 163.01 388.11 167.75
  C 379.86 175.58 368.28 177.74 357.83 173.00
  Q 357.08 172.67 356.67 173.37
  L 350.39 184.29
  Q 350.16 184.68 350.54 184.93
  C 358.39 189.90 370.96 189.68 379.68 187.83
  A 1.32 1.32 0.0 0 0 380.73 186.64
  C 381.22 180.53 388.14 175.60 394.00 176.12
  C 395.67 176.27 398.64 176.87 399.96 175.44
  C 406.34 168.58 409.31 159.81 410.78 150.58
  A 0.76 0.75 4.8 0 0 410.03 149.70
  L 396.71 149.63
  Q 396.20 149.63 396.20 150.14"
/>
<path stroke="#fea48f" vector-effect="non-scaling-stroke" d="
  M 394.1045 199.7920
  A 9.93 9.54 85.7 0 0 402.8731 189.1747
  A 9.93 9.54 85.7 0 0 392.6155 179.9880
  A 9.93 9.54 85.7 0 0 383.8469 190.6053
  A 9.93 9.54 85.7 0 0 394.1045 199.7920"
/>
<path stroke="#6d6c6a" vector-effect="non-scaling-stroke" d="
  M 290.92 263.00
  C 289.00 263.77 288.03 263.85 288.02 266.00
  Q 287.97 280.00 288.00 293.86
  A 1.33 1.33 0.0 0 0 288.98 295.14
  C 298.00 297.57 310.31 295.37 311.62 283.98
  Q 312.43 276.94 311.19 270.67
  C 309.21 260.66 298.79 259.84 290.92 263.00"
/>
</g>
<path fill="#d6d5d1" d="
  M 513.10 321.09
  Q 507.51 319.45 501.71 320.01
  Q 495.60 320.59 494.75 320.58
  Q 491.58 320.52 487.75 320.11
  C 480.61 319.36 472.97 321.14 466.01 320.43
  Q 458.90 319.70 453.53 320.26
  C 448.75 320.76 444.43 320.55 439.20 320.09
  Q 434.34 319.67 429.47 320.27
  C 421.77 321.22 414.29 319.44 406.62 320.11
  C 401.23 320.58 397.34 320.56 392.49 320.25
  C 387.89 319.95 384.75 320.03 379.19 320.39
  C 372.22 320.85 364.89 319.39 358.26 320.08
  Q 352.44 320.69 347.96 320.39
  C 342.31 320.02 338.20 319.51 333.49 320.44
  C 331.34 320.87 328.55 320.49 326.34 320.47
  Q 324.71 320.45 320.70 320.16
  C 313.94 319.66 307.01 320.96 299.57 320.35
  C 295.05 319.98 288.97 319.44 285.58 320.39
  C 282.99 321.11 278.52 320.45 275.69 320.50
  C 274.73 320.52 273.79 320.00 273.00 320.00
  Q 268.13 320.00 263.25 320.00
  C 262.38 320.00 261.38 320.64 260.23 320.61
  Q 257.24 320.54 254.25 320.53
  Q 253.02 320.53 248.31 319.98
  Q 243.92 319.47 239.90 321.06
  Q 235.12 321.10 229.54 320.96
  C 227.63 320.91 226.06 320.02 224.22 319.99
  Q 221.31 319.95 218.41 319.83
  C 213.41 319.61 208.29 318.10 203.43 316.89
  Q 203.23 316.84 202.14 316.30
  C 201.38 315.93 200.85 316.20 200.16 316.00
  C 192.28 313.66 187.44 310.78 181.93 307.78
  Q 179.61 306.52 178.54 305.64
  C 175.05 302.79 171.66 300.31 168.45 296.90
  C 166.85 295.20 164.83 293.64 163.41 292.12
  C 155.91 284.11 149.73 274.64 145.65 264.43
  C 141.94 255.15 140.71 248.22 140.87 239.66
  Q 140.96 234.43 140.53 229.21
  Q 140.48 228.71 140.70 228.26
  Q 140.98 227.66 140.99 227.25
  Q 141.29 214.93 146.34 203.75
  Q 146.41 203.60 147.14 202.64
  C 147.59 202.04 147.47 201.42 147.76 200.80
  Q 150.80 194.29 155.02 188.48
  C 156.01 187.13 156.62 185.13 158.31 183.87
  A 1.53 1.52 -9.5 0 0 158.85 183.12
  Q 159.29 181.82 159.92 181.19
  C 161.79 179.33 164.75 175.23 167.74 173.27
  C 169.80 171.92 171.03 170.18 173.07 168.57
  Q 177.54 165.06 180.53 163.02
  C 181.88 162.10 183.92 161.87 185.42 160.71
  C 187.02 159.49 188.28 158.91 189.94 158.10
  C 191.35 157.41 192.31 156.15 194.27 155.59
  Q 206.00 152.25 215.09 150.46
  Q 215.59 150.36 215.97 150.69
  Q 216.07 150.78 216.19 150.87
  A 0.80 0.80 0.0 0 0 217.20 150.78
  Q 218.08 149.90 219.31 149.99
  Q 219.81 150.03 220.09 149.60
  C 221.96 146.66 219.00 145.36 218.11 143.01
  C 215.38 135.72 214.59 129.74 213.75 121.25
  Q 213.68 120.50 213.19 118.49
  C 212.68 116.37 213.01 114.21 212.70 111.99
  Q 212.53 110.79 212.67 109.51
  C 213.05 106.01 212.74 102.71 213.52 99.25
  Q 213.85 97.82 213.77 96.31
  Q 213.75 95.83 213.99 95.43
  Q 214.94 93.83 214.91 91.99
  Q 214.81 86.42 217.71 81.80
  Q 217.99 81.36 217.86 80.85
  Q 217.76 80.42 218.19 80.18
  Q 218.66 79.92 218.67 79.38
  Q 218.71 77.79 219.84 75.54
  Q 226.32 62.66 229.01 59.77
  Q 233.31 55.16 237.55 50.51
  C 240.75 46.99 244.64 44.55 248.37 41.59
  Q 249.15 40.97 251.37 39.83
  C 252.92 39.04 254.16 37.14 255.92 36.97
  Q 256.46 36.92 256.85 36.54
  Q 259.61 33.81 263.37 32.86
  Q 263.87 32.73 264.28 32.41
  L 265.24 31.66
  Q 265.64 31.35 266.09 31.56
  Q 266.76 31.87 266.93 30.99
  A 0.57 0.56 -70.1 0 1 267.75 30.60
  Q 268.38 30.94 268.87 30.39
  Q 269.20 30.03 269.66 29.87
  C 276.17 27.54 281.69 25.66 289.21 25.83
  Q 289.68 25.84 290.09 25.60
  L 290.52 25.35
  Q 290.67 25.26 290.85 25.26
  C 295.82 25.26 300.75 24.58 305.48 25.34
  Q 309.09 25.92 312.64 26.74
  C 313.82 27.01 314.96 26.63 316.23 27.62
  Q 316.63 27.94 317.10 27.74
  Q 318.12 27.31 318.75 28.14
  Q 319.04 28.52 319.51 28.60
  Q 322.88 29.15 328.48 31.37
  Q 331.39 32.52 334.22 33.89
  C 339.59 36.49 343.24 38.20 347.07 41.87
  C 347.86 42.63 349.27 43.28 350.05 44.35
  Q 350.35 44.75 350.81 44.92
  Q 352.30 45.46 353.41 46.59
  C 356.80 50.02 362.16 54.38 365.64 59.36
  Q 366.34 60.36 369.61 63.14
  Q 369.97 63.44 370.37 63.21
  C 372.78 61.77 373.37 59.39 374.71 57.78
  Q 378.98 52.61 383.80 47.98
  C 387.24 44.67 391.93 41.83 395.46 38.99
  Q 396.35 38.27 397.21 37.98
  A 2.57 2.45 -72.9 0 0 398.03 37.52
  Q 402.64 33.70 408.40 32.01
  Q 408.88 31.87 409.38 31.96
  Q 410.74 32.19 411.13 30.79
  A 0.72 0.72 0.0 0 1 411.78 30.27
  L 412.75 30.23
  Q 413.23 30.21 413.65 29.98
  Q 416.88 28.20 419.01 27.73
  Q 434.62 24.30 448.75 24.86
  Q 451.54 24.97 454.75 26.65
  A 1.94 1.81 -30.0 0 0 455.66 26.86
  Q 458.21 26.76 460.66 27.37
  C 461.51 27.59 462.52 28.46 463.70 28.42
  Q 464.20 28.41 464.66 28.60
  C 472.97 31.99 482.31 34.47 489.24 40.44
  Q 490.35 41.39 491.78 41.88
  A 1.78 1.73 79.0 0 1 492.57 42.43
  Q 493.74 43.92 495.31 44.87
  C 498.53 46.82 500.47 50.01 503.13 52.55
  Q 505.17 54.51 506.31 55.98
  C 508.48 58.80 510.46 61.04 512.37 64.38
  C 513.45 66.26 515.01 68.02 515.99 69.70
  C 519.11 75.05 520.19 79.02 522.07 83.99
  C 523.70 88.32 524.27 92.68 525.38 97.11
  Q 525.50 97.59 525.26 98.02
  Q 524.92 98.62 525.51 99.09
  A 1.26 1.24 15.8 0 1 525.96 99.88
  Q 526.27 101.98 526.40 104.07
  C 526.47 105.03 525.77 106.27 526.54 107.46
  Q 526.81 107.88 526.81 108.39
  Q 526.77 114.20 525.99 119.93
  C 525.88 120.77 525.13 121.91 525.31 122.88
  Q 525.39 123.38 525.26 123.86
  C 524.44 126.85 524.00 130.43 522.72 133.22
  C 521.60 135.67 521.61 138.20 520.36 140.72
  Q 520.15 141.14 520.10 141.60
  L 519.53 146.90
  A 1.33 1.32 -80.9 0 0 520.57 148.34
  Q 522.77 148.82 524.25 150.47
  Q 524.57 150.82 525.04 150.86
  Q 529.18 151.15 533.07 152.77
  Q 533.55 152.97 534.06 152.92
  C 534.53 152.87 534.73 152.78 535.23 152.93
  C 544.52 155.73 551.45 157.94 558.77 162.97
  Q 559.16 163.23 560.06 164.21
  C 560.83 165.04 562.08 165.51 563.02 166.19
  Q 569.27 170.67 573.99 175.75
  Q 576.32 178.27 578.15 180.10
  Q 580.72 182.67 582.10 184.61
  Q 589.13 194.48 593.17 205.95
  Q 593.35 206.46 593.21 206.98
  Q 592.99 207.79 593.60 208.33
  Q 594.01 208.70 594.14 209.23
  C 595.40 214.43 597.33 218.31 597.15 224.30
  A 1.44 1.43 -60.0 0 0 597.37 225.13
  Q 597.45 225.25 597.52 225.37
  Q 597.60 225.50 597.61 225.64
  C 598.25 231.02 598.55 237.05 597.47 242.38
  C 597.23 243.56 597.72 244.86 597.54 246.02
  C 596.73 251.25 595.39 256.04 593.98 261.74
  C 592.65 267.12 589.15 272.08 586.73 277.32
  Q 585.14 280.75 583.36 283.12
  Q 576.17 292.69 571.73 297.23
  C 568.04 301.00 563.14 303.33 558.75 306.80
  C 555.57 309.32 551.53 310.69 547.96 312.47
  C 543.10 314.88 537.93 316.79 533.64 318.16
  Q 533.47 318.21 533.15 318.13
  A 1.42 1.39 -47.7 0 0 532.30 318.18
  Q 531.10 318.62 527.97 319.18
  Q 517.36 321.04 513.10 321.09
  Z
  M 365.75 75.77
  C 361.18 76.00 357.14 75.86 352.76 76.97
  C 345.34 78.85 338.57 81.17 331.99 85.18
  C 317.62 93.94 305.64 107.77 300.61 124.04
  C 296.84 136.25 295.07 147.90 297.76 160.57
  Q 300.14 171.76 303.72 179.00
  Q 314.88 201.57 338.23 212.84
  C 342.30 214.80 347.01 216.12 351.53 217.67
  C 358.11 219.93 367.23 219.27 374.46 219.11
  Q 380.56 218.98 385.43 217.77
  C 420.03 209.16 443.88 176.99 440.56 141.13
  Q 439.79 132.72 438.51 128.50
  Q 429.89 99.99 404.73 84.68
  C 402.42 83.27 399.63 82.32 397.07 81.02
  C 392.83 78.87 388.59 78.25 384.29 76.71
  A 11.53 11.31 55.0 0 0 380.65 76.03
  C 375.76 75.93 370.73 75.52 365.75 75.77
  Z
  M 287.95 255.45
  L 287.95 231.99
  A 1.01 1.01 0.0 0 0 286.74 231.00
  L 280.63 232.20
  Q 279.49 232.42 279.49 233.58
  L 279.51 300.25
  Q 279.51 300.73 279.98 300.88
  Q 287.54 303.26 295.51 303.52
  Q 304.29 303.80 309.73 300.77
  C 320.68 294.68 323.46 280.82 320.21 269.49
  C 317.79 261.08 312.49 254.91 303.63 253.96
  C 299.18 253.49 292.71 253.63 288.76 255.92
  A 0.54 0.54 0.0 0 1 287.95 255.45
  Z
  M 439.56 261.91
  L 457.02 261.97
  Q 457.50 261.97 457.50 261.48
  L 457.51 254.51
  Q 457.51 254.00 457.00 254.00
  L 439.50 254.00
  Q 438.99 254.00 438.99 253.50
  L 438.93 240.49
  A 0.59 0.59 0.0 0 0 438.24 239.91
  L 431.56 241.14
  A 0.90 0.90 0.0 0 0 430.83 242.02
  Q 430.74 264.73 430.88 287.75
  Q 430.90 291.35 431.91 294.78
  C 432.53 296.84 435.16 300.20 437.09 301.11
  Q 447.52 306.03 458.31 300.80
  Q 458.58 300.67 458.55 300.36
  L 457.76 293.48
  A 0.28 0.28 0.0 0 0 457.34 293.27
  C 450.53 297.22 439.63 297.98 439.19 287.04
  Q 438.70 274.75 439.00 262.45
  Q 439.01 261.90 439.56 261.91
  Z
  M 389.93 262.06
  Q 395.27 261.46 400.63 261.74
  C 404.55 261.94 406.69 261.82 408.41 265.30
  Q 410.73 269.99 410.96 274.50
  Q 411.27 280.52 410.97 302.02
  A 0.27 0.26 1.0 0 0 411.24 302.29
  L 418.95 302.24
  Q 419.13 302.24 419.12 302.06
  Q 419.00 286.68 419.03 271.00
  Q 419.05 261.51 411.38 256.06
  Q 408.85 254.27 405.74 254.09
  C 398.04 253.66 389.06 253.38 381.62 255.70
  Q 381.02 255.89 381.02 256.51
  L 380.99 302.00
  A 0.26 0.26 0.0 0 0 381.25 302.26
  L 389.16 302.23
  Q 389.42 302.23 389.42 301.97
  L 389.35 262.72
  Q 389.34 262.13 389.93 262.06
  Z
  M 258.51 294.22
  A 1.04 1.03 85.0 0 1 257.66 295.24
  C 248.20 296.89 237.55 296.55 237.79 283.76
  Q 237.90 277.73 237.46 255.79
  Q 237.44 255.01 237.48 254.51
  Q 237.53 254.00 237.02 254.00
  L 229.52 254.00
  Q 229.05 254.00 229.04 254.47
  Q 228.73 269.28 229.14 284.46
  C 229.77 308.05 251.21 304.25 266.84 300.93
  Q 267.38 300.82 267.38 300.26
  L 267.37 254.46
  A 0.45 0.44 -90.0 0 0 266.93 254.01
  L 259.00 253.99
  Q 258.50 253.99 258.50 254.50
  L 258.51 294.22
  Z
  M 359.96 294.91
  C 348.24 297.61 339.17 295.73 338.74 281.75
  Q 338.33 268.29 338.54 254.61
  Q 338.55 254.00 337.95 254.00
  L 330.72 254.00
  Q 330.02 254.00 330.02 254.69
  Q 329.99 268.20 329.92 282.01
  C 329.88 289.15 332.30 296.91 338.57 300.72
  C 346.99 305.83 359.19 303.00 368.11 300.97
  A 1.27 1.26 83.8 0 0 369.10 299.73
  L 368.97 254.73
  A 0.74 0.73 -0.0 0 0 368.23 254.00
  L 361.22 254.01
  Q 360.45 254.01 360.46 254.78
  L 360.53 294.20
  Q 360.54 294.78 359.96 294.91
  Z
  M 494.43 294.95
  C 481.85 298.49 473.23 294.44 473.04 280.50
  Q 472.87 267.49 473.05 255.29
  Q 473.07 253.99 471.76 254.00
  L 466.48 254.03
  Q 465.02 254.04 465.02 255.50
  C 464.99 266.30 464.16 278.73 465.79 289.27
  C 468.20 304.84 484.75 304.76 496.46 302.23
  Q 499.82 301.51 503.29 300.93
  Q 503.90 300.83 503.90 300.21
  L 503.98 255.25
  A 1.24 1.24 0.0 0 0 502.75 254.01
  L 496.03 253.99
  Q 494.80 253.99 494.80 255.22
  L 494.80 294.47
  A 0.50 0.50 0.0 0 1 494.43 294.95
  Z"
/>
<path fill="#fc491e" d="
  M 365.75 75.77
  C 370.73 75.52 375.76 75.93 380.65 76.03
  A 11.53 11.31 55.0 0 1 384.29 76.71
  C 388.59 78.25 392.83 78.87 397.07 81.02
  C 399.63 82.32 402.42 83.27 404.73 84.68
  Q 429.89 99.99 438.51 128.50
  Q 439.79 132.72 440.56 141.13
  C 443.88 176.99 420.03 209.16 385.43 217.77
  Q 380.56 218.98 374.46 219.11
  C 367.23 219.27 358.11 219.93 351.53 217.67
  C 347.01 216.12 342.30 214.80 338.23 212.84
  Q 314.88 201.57 303.72 179.00
  Q 300.14 171.76 297.76 160.57
  C 295.07 147.90 296.84 136.25 300.61 124.04
  C 305.64 107.77 317.62 93.94 331.99 85.18
  C 338.57 81.17 345.34 78.85 352.76 76.97
  C 357.14 75.86 361.18 76.00 365.75 75.77
  Z
  M 403.07 104.86
  A 9.68 9.68 0.0 0 0 393.39 95.18
  A 9.68 9.68 0.0 0 0 383.71 104.86
  A 9.68 9.68 0.0 0 0 393.39 114.54
  A 9.68 9.68 0.0 0 0 403.07 104.86
  Z
  M 384.65 124.30
  C 390.60 128.71 396.30 136.04 396.18 143.93
  A 1.07 1.07 0.0 0 0 397.25 145.01
  L 410.00 144.98
  A 0.77 0.76 85.8 0 0 410.75 144.10
  C 409.46 135.52 406.74 127.09 400.60 120.41
  A 2.11 2.10 -75.2 0 1 400.15 119.63
  Q 399.65 118.02 397.51 118.01
  C 394.02 118.01 390.14 118.56 387.11 116.93
  Q 381.88 114.11 380.33 107.93
  A 0.77 0.75 89.8 0 0 379.78 107.37
  Q 371.80 105.22 367.50 105.73
  C 361.91 106.39 355.55 106.81 350.63 109.83
  Q 350.24 110.07 350.47 110.47
  L 356.64 121.32
  A 0.74 0.74 0.0 0 0 357.51 121.65
  C 361.99 120.12 367.33 118.27 372.01 119.27
  C 376.11 120.14 381.19 121.73 384.65 124.30
  Z
  M 341.55 141.40
  C 342.97 134.31 346.68 128.99 352.46 124.86
  A 0.64 0.63 56.6 0 0 352.63 124.02
  L 346.05 113.34
  Q 345.65 112.68 344.98 113.06
  C 336.82 117.70 330.50 128.05 328.32 136.39
  Q 328.19 136.90 328.53 137.31
  C 334.92 144.94 334.72 149.85 328.69 157.64
  Q 328.39 158.03 328.49 158.50
  C 330.64 168.17 336.53 175.29 344.40 181.59
  A 1.13 1.12 -54.4 0 0 346.06 181.31
  L 352.49 170.98
  Q 352.76 170.55 352.37 170.23
  Q 338.05 158.82 341.55 141.40
  Z
  M 329.55 147.44
  A 9.70 9.70 0.0 0 0 319.85 137.74
  A 9.70 9.70 0.0 0 0 310.15 147.44
  A 9.70 9.70 0.0 0 0 319.85 157.14
  A 9.70 9.70 0.0 0 0 329.55 147.44
  Z
  M 396.20 150.14
  C 396.24 157.21 393.10 163.01 388.11 167.75
  C 379.86 175.58 368.28 177.74 357.83 173.00
  Q 357.08 172.67 356.67 173.37
  L 350.39 184.29
  Q 350.16 184.68 350.54 184.93
  C 358.39 189.90 370.96 189.68 379.68 187.83
  A 1.32 1.32 0.0 0 0 380.73 186.64
  C 381.22 180.53 388.14 175.60 394.00 176.12
  C 395.67 176.27 398.64 176.87 399.96 175.44
  C 406.34 168.58 409.31 159.81 410.78 150.58
  A 0.76 0.75 4.8 0 0 410.03 149.70
  L 396.71 149.63
  Q 396.20 149.63 396.20 150.14
  Z
  M 394.1045 199.7920
  A 9.93 9.54 85.7 0 0 402.8731 189.1747
  A 9.93 9.54 85.7 0 0 392.6155 179.9880
  A 9.93 9.54 85.7 0 0 383.8469 190.6053
  A 9.93 9.54 85.7 0 0 394.1045 199.7920
  Z"
/>
<circle fill="#ffffff" cx="393.39" cy="104.86" r="9.68"/>
<path fill="#ffffff" d="
  M 396.18 143.93
  C 396.30 136.04 390.60 128.71 384.65 124.30
  C 381.19 121.73 376.11 120.14 372.01 119.27
  C 367.33 118.27 361.99 120.12 357.51 121.65
  A 0.74 0.74 0.0 0 1 356.64 121.32
  L 350.47 110.47
  Q 350.24 110.07 350.63 109.83
  C 355.55 106.81 361.91 106.39 367.50 105.73
  Q 371.80 105.22 379.78 107.37
  A 0.77 0.75 89.8 0 1 380.33 107.93
  Q 381.88 114.11 387.11 116.93
  C 390.14 118.56 394.02 118.01 397.51 118.01
  Q 399.65 118.02 400.15 119.63
  A 2.11 2.10 -75.2 0 0 400.60 120.41
  C 406.74 127.09 409.46 135.52 410.75 144.10
  A 0.77 0.76 85.8 0 1 410.00 144.98
  L 397.25 145.01
  A 1.07 1.07 0.0 0 1 396.18 143.93
  Z"
/>
<path fill="#ffffff" d="
  M 341.55 141.40
  Q 338.05 158.82 352.37 170.23
  Q 352.76 170.55 352.49 170.98
  L 346.06 181.31
  A 1.13 1.12 -54.4 0 1 344.40 181.59
  C 336.53 175.29 330.64 168.17 328.49 158.50
  Q 328.39 158.03 328.69 157.64
  C 334.72 149.85 334.92 144.94 328.53 137.31
  Q 328.19 136.90 328.32 136.39
  C 330.50 128.05 336.82 117.70 344.98 113.06
  Q 345.65 112.68 346.05 113.34
  L 352.63 124.02
  A 0.64 0.63 56.6 0 1 352.46 124.86
  C 346.68 128.99 342.97 134.31 341.55 141.40
  Z"
/>
<circle fill="#ffffff" cx="319.85" cy="147.44" r="9.70"/>
<path fill="#ffffff" d="
  M 388.11 167.75
  C 393.10 163.01 396.24 157.21 396.20 150.14
  Q 396.20 149.63 396.71 149.63
  L 410.03 149.70
  A 0.76 0.75 4.8 0 1 410.78 150.58
  C 409.31 159.81 406.34 168.58 399.96 175.44
  C 398.64 176.87 395.67 176.27 394.00 176.12
  C 388.14 175.60 381.22 180.53 380.73 186.64
  A 1.32 1.32 0.0 0 1 379.68 187.83
  C 370.96 189.68 358.39 189.90 350.54 184.93
  Q 350.16 184.68 350.39 184.29
  L 356.67 173.37
  Q 357.08 172.67 357.83 173.00
  C 368.28 177.74 379.86 175.58 388.11 167.75
  Z"
/>
<ellipse fill="#ffffff" cx="0.00" cy="0.00" transform="translate(393.36,189.89) rotate(85.7)" rx="9.93" ry="9.54"/>
<path fill="#030303" d="
  M 287.95 255.45
  A 0.54 0.54 0.0 0 0 288.76 255.92
  C 292.71 253.63 299.18 253.49 303.63 253.96
  C 312.49 254.91 317.79 261.08 320.21 269.49
  C 323.46 280.82 320.68 294.68 309.73 300.77
  Q 304.29 303.80 295.51 303.52
  Q 287.54 303.26 279.98 300.88
  Q 279.51 300.73 279.51 300.25
  L 279.49 233.58
  Q 279.49 232.42 280.63 232.20
  L 286.74 231.00
  A 1.01 1.01 0.0 0 1 287.95 231.99
  L 287.95 255.45
  Z
  M 290.92 263.00
  C 289.00 263.77 288.03 263.85 288.02 266.00
  Q 287.97 280.00 288.00 293.86
  A 1.33 1.33 0.0 0 0 288.98 295.14
  C 298.00 297.57 310.31 295.37 311.62 283.98
  Q 312.43 276.94 311.19 270.67
  C 309.21 260.66 298.79 259.84 290.92 263.00
  Z"
/>
<path fill="#030303" d="
  M 439.00 262.45
  Q 438.70 274.75 439.19 287.04
  C 439.63 297.98 450.53 297.22 457.34 293.27
  A 0.28 0.28 0.0 0 1 457.76 293.48
  L 458.55 300.36
  Q 458.58 300.67 458.31 300.80
  Q 447.52 306.03 437.09 301.11
  C 435.16 300.20 432.53 296.84 431.91 294.78
  Q 430.90 291.35 430.88 287.75
  Q 430.74 264.73 430.83 242.02
  A 0.90 0.90 0.0 0 1 431.56 241.14
  L 438.24 239.91
  A 0.59 0.59 0.0 0 1 438.93 240.49
  L 438.99 253.50
  Q 438.99 254.00 439.50 254.00
  L 457.00 254.00
  Q 457.51 254.00 457.51 254.51
  L 457.50 261.48
  Q 457.50 261.97 457.02 261.97
  L 439.56 261.91
  Q 439.01 261.90 439.00 262.45
  Z"
/>
<path fill="#030303" d="
  M 389.35 262.72
  L 389.42 301.97
  Q 389.42 302.23 389.16 302.23
  L 381.25 302.26
  A 0.26 0.26 0.0 0 1 380.99 302.00
  L 381.02 256.51
  Q 381.02 255.89 381.62 255.70
  C 389.06 253.38 398.04 253.66 405.74 254.09
  Q 408.85 254.27 411.38 256.06
  Q 419.05 261.51 419.03 271.00
  Q 419.00 286.68 419.12 302.06
  Q 419.13 302.24 418.95 302.24
  L 411.24 302.29
  A 0.27 0.26 1.0 0 1 410.97 302.02
  Q 411.27 280.52 410.96 274.50
  Q 410.73 269.99 408.41 265.30
  C 406.69 261.82 404.55 261.94 400.63 261.74
  Q 395.27 261.46 389.93 262.06
  Q 389.34 262.13 389.35 262.72
  Z"
/>
<path fill="#030303" d="
  M 258.51 294.22
  L 258.50 254.50
  Q 258.50 253.99 259.00 253.99
  L 266.93 254.01
  A 0.45 0.44 90.0 0 1 267.37 254.46
  L 267.38 300.26
  Q 267.38 300.82 266.84 300.93
  C 251.21 304.25 229.77 308.05 229.14 284.46
  Q 228.73 269.28 229.04 254.47
  Q 229.05 254.00 229.52 254.00
  L 237.02 254.00
  Q 237.53 254.00 237.48 254.51
  Q 237.44 255.01 237.46 255.79
  Q 237.90 277.73 237.79 283.76
  C 237.55 296.55 248.20 296.89 257.66 295.24
  A 1.04 1.03 85.0 0 0 258.51 294.22
  Z"
/>
<path fill="#030303" d="
  M 360.53 294.20
  L 360.46 254.78
  Q 360.45 254.01 361.22 254.01
  L 368.23 254.00
  A 0.74 0.73 -0.0 0 1 368.97 254.73
  L 369.10 299.73
  A 1.27 1.26 83.8 0 1 368.11 300.97
  C 359.19 303.00 346.99 305.83 338.57 300.72
  C 332.30 296.91 329.88 289.15 329.92 282.01
  Q 329.99 268.20 330.02 254.69
  Q 330.02 254.00 330.72 254.00
  L 337.95 254.00
  Q 338.55 254.00 338.54 254.61
  Q 338.33 268.29 338.74 281.75
  C 339.17 295.73 348.24 297.61 359.96 294.91
  Q 360.54 294.78 360.53 294.20
  Z"
/>
<path fill="#030303" d="
  M 494.43 294.95
  A 0.50 0.50 0.0 0 0 494.80 294.47
  L 494.80 255.22
  Q 494.80 253.99 496.03 253.99
  L 502.75 254.01
  A 1.24 1.24 0.0 0 1 503.98 255.25
  L 503.90 300.21
  Q 503.90 300.83 503.29 300.93
  Q 499.82 301.51 496.46 302.23
  C 484.75 304.76 468.20 304.84 465.79 289.27
  C 464.16 278.73 464.99 266.30 465.02 255.50
  Q 465.02 254.04 466.48 254.03
  L 471.76 254.00
  Q 473.07 253.99 473.05 255.29
  Q 472.87 267.49 473.04 280.50
  C 473.23 294.44 481.85 298.49 494.43 294.95
  Z"
/>
<path fill="#d6d5d1" d="
  M 290.92 263.00
  C 298.79 259.84 309.21 260.66 311.19 270.67
  Q 312.43 276.94 311.62 283.98
  C 310.31 295.37 298.00 297.57 288.98 295.14
  A 1.33 1.33 0.0 0 1 288.00 293.86
  Q 287.97 280.00 288.02 266.00
  C 288.03 263.85 289.00 263.77 290.92 263.00
  Z"
/>
<path fill="#ffffff" d="
  M 513.10 321.09
  Q 504.94 321.92 497.00 321.87
  Q 493.57 321.84 487.02 322.21
  C 480.35 322.58 473.68 321.66 466.82 322.03
  Q 460.54 322.37 456.67 322.21
  C 445.60 321.72 435.39 322.83 427.00 321.95
  Q 423.24 321.55 415.25 322.26
  Q 411.11 322.62 402.75 321.89
  Q 398.23 321.49 390.13 322.37
  Q 387.01 322.71 378.75 321.94
  C 373.57 321.46 367.03 322.50 361.46 322.29
  C 355.77 322.08 350.63 321.86 344.60 322.21
  Q 338.83 322.55 335.75 322.29
  C 327.92 321.61 317.89 322.50 307.82 322.10
  C 299.09 321.75 289.99 322.41 280.99 322.02
  C 276.00 321.79 270.53 322.35 265.00 322.18
  Q 249.29 321.68 239.90 321.06
  Q 243.92 319.47 248.31 319.98
  Q 253.02 320.53 254.25 320.53
  Q 257.24 320.54 260.23 320.61
  C 261.38 320.64 262.38 320.00 263.25 320.00
  Q 268.13 320.00 273.00 320.00
  C 273.79 320.00 274.73 320.52 275.69 320.50
  C 278.52 320.45 282.99 321.11 285.58 320.39
  C 288.97 319.44 295.05 319.98 299.57 320.35
  C 307.01 320.96 313.94 319.66 320.70 320.16
  Q 324.71 320.45 326.34 320.47
  C 328.55 320.49 331.34 320.87 333.49 320.44
  C 338.20 319.51 342.31 320.02 347.96 320.39
  Q 352.44 320.69 358.26 320.08
  C 364.89 319.39 372.22 320.85 379.19 320.39
  C 384.75 320.03 387.89 319.95 392.49 320.25
  C 397.34 320.56 401.23 320.58 406.62 320.11
  C 414.29 319.44 421.77 321.22 429.47 320.27
  Q 434.34 319.67 439.20 320.09
  C 444.43 320.55 448.75 320.76 453.53 320.26
  Q 458.90 319.70 466.01 320.43
  C 472.97 321.14 480.61 319.36 487.75 320.11
  Q 491.58 320.52 494.75 320.58
  Q 495.60 320.59 501.71 320.01
  Q 507.51 319.45 513.10 321.09
  Z"
/>
</svg>
