<?xml version="1.0" encoding="UTF-8" standalone="no"?>
<!DOCTYPE svg PUBLIC "-//W3C//DTD SVG 1.1//EN" "http://www.w3.org/Graphics/SVG/1.1/DTD/svg11.dtd">
<svg xmlns="http://www.w3.org/2000/svg" version="1.1" viewBox="0.00 0.00 1448.00 1448.00">
<g stroke-width="5.00" fill="none" stroke-linecap="butt">
<path stroke="#eea48a" vector-effect="non-scaling-stroke" d="
  M 1065.67 296.88
  A 96.39 96.39 0.0 0 0 969.28 200.49
  A 96.39 96.39 0.0 0 0 872.89 296.88
  A 96.39 96.39 0.0 0 0 969.28 393.27
  A 96.39 96.39 0.0 0 0 1065.67 296.88"
/>
<path stroke="#eea48a" vector-effect="non-scaling-stroke" d="
  M 1016.75 423.65
  C 936.16 453.69 850.47 403.00 835.70 319.07
  Q 835.61 318.59 835.13 318.45
  C 735.56 290.91 630.63 301.46 538.44 346.50
  A 0.37 0.36 -27.6 0 0 538.28 347.00
  L 604.88 466.37
  Q 605.10 466.75 605.49 466.56
  C 702.78 421.74 817.18 435.57 900.54 502.96
  C 959.95 550.97 997.29 620.80 1004.26 696.99
  A 0.26 0.26 0.0 0 0 1004.52 697.23
  L 1141.24 695.20
  Q 1141.73 695.19 1141.69 694.71
  C 1134.40 591.32 1091.11 496.99 1017.60 423.84
  A 0.80 0.80 0.0 0 0 1016.75 423.65"
/>
<path stroke="#eea48a" vector-effect="non-scaling-stroke" d="
  M 463.93 831.02
  C 434.03 760.62 434.93 677.83 466.23 608.06
  Q 497.98 537.32 561.52 492.00
  A 0.45 0.45 0.0 0 0 561.64 491.41
  L 491.69 374.25
  Q 491.35 373.68 490.80 374.05
  C 405.48 431.43 344.45 517.32 318.18 616.81
  A 0.54 0.53 27.4 0 0 318.36 617.36
  C 384.62 672.08 384.48 772.15 318.45 826.94
  A 0.71 0.69 63.0 0 0 318.23 827.65
  C 344.27 927.23 405.72 1013.08 490.99 1070.51
  A 0.41 0.41 0.0 0 0 491.57 1070.38
  L 561.64 952.99
  Q 561.85 952.64 561.51 952.40
  Q 495.42 905.16 463.93 831.02"
/>
<path stroke="#eea48a" vector-effect="non-scaling-stroke" d="
  M 329.06 722.19
  A 96.42 96.42 0.0 0 0 232.64 625.77
  A 96.42 96.42 0.0 0 0 136.22 722.19
  A 96.42 96.42 0.0 0 0 232.64 818.61
  A 96.42 96.42 0.0 0 0 329.06 722.19"
/>
<path stroke="#eea48a" vector-effect="non-scaling-stroke" d="
  M 609.57 979.66
  Q 606.86 978.45 605.66 977.84
  Q 605.14 977.58 604.86 978.09
  L 538.40 1097.18
  A 0.63 0.63 0.0 0 0 538.67 1098.05
  C 631.31 1143.05 735.43 1153.36 835.09 1125.96
  Q 835.57 1125.82 835.67 1125.33
  Q 837.66 1115.37 838.82 1111.25
  C 860.50 1034.62 941.85 993.08 1016.73 1020.67
  Q 1017.23 1020.86 1017.61 1020.48
  C 1090.81 948.15 1134.71 852.45 1141.66 749.64
  Q 1141.69 749.18 1141.22 749.17
  L 1004.74 747.17
  A 0.54 0.53 2.8 0 0 1004.19 747.66
  C 994.43 855.23 924.12 947.24 823.48 985.68
  C 755.04 1011.82 676.58 1009.59 609.57 979.66"
/>
<path stroke="#eea48a" vector-effect="non-scaling-stroke" d="
  M 1065.68 1147.49
  A 96.39 96.39 0.0 0 0 969.29 1051.10
  A 96.39 96.39 0.0 0 0 872.90 1147.49
  A 96.39 96.39 0.0 0 0 969.29 1243.88
  A 96.39 96.39 0.0 0 0 1065.68 1147.49"
/>
</g>
<path fill="#dd4814" d="
  M 710.87 0.00
  L 736.50 0.00
  C 746.05 0.46 756.55 0.56 765.17 1.09
  Q 967.06 13.47 1131.66 126.07
  Q 1258.84 213.08 1340.70 346.60
  C 1429.85 492.03 1463.26 665.61 1437.36 833.88
  C 1405.06 1043.70 1279.10 1230.42 1097.68 1340.16
  C 959.91 1423.49 799.34 1457.96 640.00 1439.57
  C 388.98 1410.61 169.24 1249.80 65.71 1020.24
  C -41.77 781.95 -12.74 502.84 143.04 292.74
  C 208.57 204.36 294.19 130.80 392.67 80.18
  Q 531.38 8.89 688.01 1.04
  Q 699.44 0.47 710.87 0.00
  Z
  M 1065.67 296.88
  A 96.39 96.39 0.0 0 0 969.28 200.49
  A 96.39 96.39 0.0 0 0 872.89 296.88
  A 96.39 96.39 0.0 0 0 969.28 393.27
  A 96.39 96.39 0.0 0 0 1065.67 296.88
  Z
  M 1016.75 423.65
  C 936.16 453.69 850.47 403.00 835.70 319.07
  Q 835.61 318.59 835.13 318.45
  C 735.56 290.91 630.63 301.46 538.44 346.50
  A 0.37 0.36 -27.6 0 0 538.28 347.00
  L 604.88 466.37
  Q 605.10 466.75 605.49 466.56
  C 702.78 421.74 817.18 435.57 900.54 502.96
  C 959.95 550.97 997.29 620.80 1004.26 696.99
  A 0.26 0.26 0.0 0 0 1004.52 697.23
  L 1141.24 695.20
  Q 1141.73 695.19 1141.69 694.71
  C 1134.40 591.32 1091.11 496.99 1017.60 423.84
  A 0.80 0.80 0.0 0 0 1016.75 423.65
  Z
  M 463.93 831.02
  C 434.03 760.62 434.93 677.83 466.23 608.06
  Q 497.98 537.32 561.52 492.00
  A 0.45 0.45 0.0 0 0 561.64 491.41
  L 491.69 374.25
  Q 491.35 373.68 490.80 374.05
  C 405.48 431.43 344.45 517.32 318.18 616.81
  A 0.54 0.53 27.4 0 0 318.36 617.36
  C 384.62 672.08 384.48 772.15 318.45 826.94
  A 0.71 0.69 63.0 0 0 318.23 827.65
  C 344.27 927.23 405.72 1013.08 490.99 1070.51
  A 0.41 0.41 0.0 0 0 491.57 1070.38
  L 561.64 952.99
  Q 561.85 952.64 561.51 952.40
  Q 495.42 905.16 463.93 831.02
  Z
  M 329.06 722.19
  A 96.42 96.42 0.0 0 0 232.64 625.77
  A 96.42 96.42 0.0 0 0 136.22 722.19
  A 96.42 96.42 0.0 0 0 232.64 818.61
  A 96.42 96.42 0.0 0 0 329.06 722.19
  Z
  M 609.57 979.66
  Q 606.86 978.45 605.66 977.84
  Q 605.14 977.58 604.86 978.09
  L 538.40 1097.18
  A 0.63 0.63 0.0 0 0 538.67 1098.05
  C 631.31 1143.05 735.43 1153.36 835.09 1125.96
  Q 835.57 1125.82 835.67 1125.33
  Q 837.66 1115.37 838.82 1111.25
  C 860.50 1034.62 941.85 993.08 1016.73 1020.67
  Q 1017.23 1020.86 1017.61 1020.48
  C 1090.81 948.15 1134.71 852.45 1141.66 749.64
  Q 1141.69 749.18 1141.22 749.17
  L 1004.74 747.17
  A 0.54 0.53 2.8 0 0 1004.19 747.66
  C 994.43 855.23 924.12 947.24 823.48 985.68
  C 755.04 1011.82 676.58 1009.59 609.57 979.66
  Z
  M 1065.68 1147.49
  A 96.39 96.39 0.0 0 0 969.29 1051.10
  A 96.39 96.39 0.0 0 0 872.90 1147.49
  A 96.39 96.39 0.0 0 0 969.29 1243.88
  A 96.39 96.39 0.0 0 0 1065.68 1147.49
  Z"
/>
<circle fill="#ffffff" cx="969.28" cy="296.88" r="96.39"/>
<path fill="#ffffff" d="
  M 835.70 319.07
  C 850.47 403.00 936.16 453.69 1016.75 423.65
  A 0.80 0.80 0.0 0 1 1017.60 423.84
  C 1091.11 496.99 1134.40 591.32 1141.69 694.71
  Q 1141.73 695.19 1141.24 695.20
  L 1004.52 697.23
  A 0.26 0.26 0.0 0 1 1004.26 696.99
  C 997.29 620.80 959.95 550.97 900.54 502.96
  C 817.18 435.57 702.78 421.74 605.49 466.56
  Q 605.10 466.75 604.88 466.37
  L 538.28 347.00
  A 0.37 0.36 -27.6 0 1 538.44 346.50
  C 630.63 301.46 735.56 290.91 835.13 318.45
  Q 835.61 318.59 835.70 319.07
  Z"
/>
<path fill="#ffffff" d="
  M 463.93 831.02
  Q 495.42 905.16 561.51 952.40
  Q 561.85 952.64 561.64 952.99
  L 491.57 1070.38
  A 0.41 0.41 0.0 0 1 490.99 1070.51
  C 405.72 1013.08 344.27 927.23 318.23 827.65
  A 0.71 0.69 63.0 0 1 318.45 826.94
  C 384.48 772.15 384.62 672.08 318.36 617.36
  A 0.54 0.53 27.4 0 1 318.18 616.81
  C 344.45 517.32 405.48 431.43 490.80 374.05
  Q 491.35 373.68 491.69 374.25
  L 561.64 491.41
  A 0.45 0.45 0.0 0 1 561.52 492.00
  Q 497.98 537.32 466.23 608.06
  C 434.93 677.83 434.03 760.62 463.93 831.02
  Z"
/>
<circle fill="#ffffff" cx="232.64" cy="722.19" r="96.42"/>
<path fill="#ffffff" d="
  M 609.57 979.66
  C 676.58 1009.59 755.04 1011.82 823.48 985.68
  C 924.12 947.24 994.43 855.23 1004.19 747.66
  A 0.54 0.53 2.8 0 1 1004.74 747.17
  L 1141.22 749.17
  Q 1141.69 749.18 1141.66 749.64
  C 1134.71 852.45 1090.81 948.15 1017.61 1020.48
  Q 1017.23 1020.86 1016.73 1020.67
  C 941.85 993.08 860.50 1034.62 838.82 1111.25
  Q 837.66 1115.37 835.67 1125.33
  Q 835.57 1125.82 835.09 1125.96
  C 735.43 1153.36 631.31 1143.05 538.67 1098.05
  A 0.63 0.63 0.0 0 1 538.40 1097.18
  L 604.86 978.09
  Q 605.14 977.58 605.66 977.84
  Q 606.86 978.45 609.57 979.66
  Z"
/>
<circle fill="#ffffff" cx="969.29" cy="1147.49" r="96.39"/>
</svg>
